<svg width="1280" height="271" viewBox="0 0 1280 271" fill="none" xmlns="http://www.w3.org/2000/svg">
<mask id="path-1-inside-1_368_93344" fill="white">
<path d="M55 60H1225V210.316H55V60Z"/>
</mask>
<path d="M55 61H1225V59H55V61ZM1225 209.316H55V211.316H1225V209.316Z" fill="#D8D8D8" mask="url(#path-1-inside-1_368_93344)"/>
<g clip-path="url(#clip0_368_93344)">
<path d="M80.7996 140.994C80.6584 140.653 80.5261 140.295 80.3849 139.989L79.732 138.53L79.7055 138.504C77.7643 134.31 75.6908 130.046 73.4937 125.851L73.4055 125.677C73.1849 125.266 72.9643 124.812 72.7349 124.392C72.4525 123.894 72.179 123.361 71.729 122.854C71.2904 122.324 70.7383 121.897 70.1127 121.603C69.4871 121.31 68.8036 121.158 68.1114 121.158C67.4192 121.158 66.7356 121.31 66.11 121.603C65.4844 121.897 64.9324 122.324 64.4937 122.854C64.079 123.361 63.7702 123.894 63.4878 124.392C63.2672 124.847 63.0467 125.292 62.8172 125.703L62.729 125.878C60.5672 130.072 58.4584 134.336 56.5172 138.53L56.4643 138.582C56.2702 139.037 56.0408 139.509 55.8202 140.015C55.679 140.321 55.5378 140.653 55.3967 141.02C55.0155 141.981 54.8938 143.024 55.0435 144.046C55.1932 145.068 55.6092 146.033 56.2505 146.847C56.8917 147.661 57.7361 148.296 58.7004 148.688C59.6647 149.081 60.7156 149.218 61.7496 149.085C62.7409 148.956 63.6954 148.629 64.5555 148.124C65.7025 147.486 66.8055 146.56 68.0408 145.223C69.2761 146.56 70.4055 147.486 71.5261 148.133C72.6037 148.759 73.824 149.105 75.0731 149.138C76.5196 149.144 77.9194 148.631 79.0141 147.695C80.1088 146.759 80.8245 145.462 81.029 144.044C81.2653 143.025 81.1854 141.959 80.7996 140.985V140.994ZM68.129 142.445C66.6114 140.522 65.6231 138.757 65.2878 137.246C65.1489 136.685 65.119 136.104 65.1996 135.533C65.2614 135.087 65.429 134.694 65.6584 134.362C66.1878 133.602 67.1143 133.13 68.129 133.13C68.6109 133.115 69.0889 133.22 69.5201 133.433C69.9513 133.647 70.3222 133.963 70.5996 134.353C70.829 134.703 70.9967 135.087 71.0496 135.533C71.1378 136.04 71.1025 136.625 70.9614 137.246C70.6261 138.731 69.6378 140.514 68.129 142.445ZM79.3702 143.738C79.2699 144.458 78.9809 145.139 78.532 145.714C78.083 146.289 77.4898 146.737 76.8114 147.015C76.1408 147.294 75.3996 147.373 74.6761 147.294C73.9702 147.207 73.2643 146.98 72.5408 146.56C71.3395 145.825 70.2592 144.911 69.3378 143.851C71.1908 141.58 72.3114 139.509 72.7349 137.665C72.9378 136.791 72.9643 136.005 72.8761 135.28C72.7659 134.592 72.507 133.936 72.1172 133.357C71.6722 132.729 71.0781 132.219 70.3873 131.872C69.6965 131.524 68.9301 131.35 68.1555 131.365C66.5231 131.365 65.0672 132.116 64.1849 133.348C63.7877 133.926 63.531 134.587 63.4349 135.28C63.3202 136.014 63.3467 136.826 63.5761 137.665C63.9996 139.509 65.1467 141.606 66.9731 143.869C66.0674 144.949 64.9846 145.871 63.7702 146.595C63.0378 147.015 62.3408 147.233 61.6349 147.32C60.5371 147.46 59.4283 147.164 58.5493 146.498C57.6703 145.832 57.0922 144.85 56.9408 143.764C56.8525 143.065 56.9143 142.366 57.1967 141.58C57.2849 141.3 57.4172 141.02 57.5584 140.688C57.7525 140.234 57.982 139.762 58.2025 139.29L58.2378 139.229C60.1437 135.061 62.2261 130.806 64.3878 126.638L64.4761 126.463C64.6967 126.044 64.9172 125.598 65.1467 125.179C65.3761 124.733 65.6231 124.305 65.9408 123.955C66.2157 123.63 66.5593 123.369 66.9473 123.19C67.3352 123.01 67.7582 122.917 68.1864 122.917C68.6145 122.917 69.0375 123.01 69.4255 123.19C69.8134 123.369 70.157 123.63 70.432 123.955C70.7408 124.305 70.9967 124.733 71.2261 125.179C71.4467 125.598 71.6672 126.052 71.8967 126.463L71.9849 126.638C74.1378 130.806 76.2202 135.061 78.1614 139.229L78.1878 139.255C78.4172 139.71 78.6114 140.216 78.8319 140.653C78.9731 140.994 79.1143 141.265 79.2025 141.553C79.3702 142.34 79.4584 143.039 79.3702 143.738ZM91.6525 142.252C90.9876 142.262 90.3291 142.123 89.7258 141.846C89.1224 141.57 88.5897 141.162 88.1672 140.653C87.2179 139.57 86.714 138.173 86.7555 136.739C86.741 135.274 87.2611 133.853 88.2202 132.737C88.6638 132.222 89.2161 131.809 89.8381 131.529C90.4601 131.248 91.1366 131.105 91.8202 131.112C92.4634 131.094 93.1004 131.239 93.6715 131.532C94.2426 131.826 94.729 132.258 95.0849 132.789L95.1731 131.417H97.7496V141.973H95.1643L95.0761 140.435C94.7092 141.002 94.202 141.466 93.6028 141.784C93.0037 142.102 92.3323 142.264 91.6525 142.252ZM92.3231 139.736C92.8349 139.736 93.2849 139.596 93.7084 139.343C94.0967 139.063 94.4143 138.696 94.6614 138.25C94.8819 137.805 94.9967 137.272 94.9967 136.678C95.0311 136.162 94.9296 135.645 94.7023 135.18C94.4749 134.714 94.1294 134.315 93.6996 134.021C93.2866 133.766 92.8097 133.631 92.3231 133.631C91.8365 133.631 91.3597 133.766 90.9467 134.021C90.5584 134.301 90.2408 134.668 89.9937 135.114C89.7604 135.605 89.6456 136.143 89.6584 136.686C89.624 137.202 89.7255 137.718 89.9528 138.184C90.1802 138.65 90.5256 139.049 90.9555 139.343C91.3702 139.596 91.8202 139.736 92.3231 139.736ZM102.161 128.569C102.161 128.875 102.108 129.154 101.967 129.382C101.826 129.6 101.632 129.801 101.376 129.941C101.12 130.081 100.847 130.133 100.564 130.133C100.282 130.133 99.9996 130.081 99.7437 129.941C99.5017 129.807 99.2982 129.615 99.1525 129.382C99.0159 129.133 98.9489 128.852 98.9584 128.569C98.9584 128.254 99.0202 127.975 99.1525 127.756C99.2937 127.494 99.4967 127.337 99.7437 127.197C99.9996 127.057 100.273 126.996 100.564 126.996C100.845 126.99 101.123 127.056 101.37 127.187C101.618 127.319 101.827 127.512 101.976 127.748C102.104 128.002 102.168 128.284 102.161 128.569ZM99.1614 141.938V131.4H101.967V141.955H99.1525L99.1614 141.938ZM109.467 134.161V134.196C109.335 134.135 109.158 134.109 109.026 134.082C108.85 134.048 108.708 134.048 108.541 134.048C107.755 134.048 107.164 134.275 106.776 134.747C106.353 135.227 106.158 135.9 106.158 136.765V141.947H103.344V131.391H105.929L106.017 132.99C106.3 132.431 106.635 132.012 107.111 131.697C107.585 131.391 108.143 131.239 108.708 131.26C108.911 131.26 109.105 131.278 109.273 131.313C109.361 131.339 109.414 131.339 109.467 131.365V134.161ZM110.597 141.938V127.066H113.403V132.746C113.8 132.239 114.25 131.846 114.814 131.54C115.708 131.106 116.724 130.983 117.697 131.19C118.671 131.398 119.545 131.924 120.179 132.684C121.13 133.77 121.634 135.171 121.591 136.608C121.605 138.073 121.085 139.494 120.126 140.61C119.682 141.125 119.13 141.537 118.508 141.818C117.886 142.099 117.21 142.241 116.526 142.235C115.883 142.252 115.246 142.108 114.675 141.814C114.104 141.521 113.617 141.088 113.261 140.557L113.173 141.929L110.597 141.955V141.938ZM116.023 139.736C116.526 139.736 116.976 139.596 117.4 139.343C117.788 139.063 118.105 138.696 118.353 138.25C118.582 137.805 118.688 137.272 118.688 136.678C118.688 136.092 118.582 135.559 118.353 135.114C118.121 134.684 117.795 134.311 117.4 134.021C116.987 133.766 116.51 133.631 116.023 133.631C115.537 133.631 115.06 133.766 114.647 134.021C114.25 134.301 113.941 134.668 113.685 135.114C113.452 135.605 113.337 136.143 113.35 136.686C113.315 137.202 113.417 137.718 113.644 138.184C113.871 138.65 114.217 139.049 114.647 139.343C115.061 139.596 115.511 139.736 116.023 139.736ZM122.65 141.947V131.391H125.235L125.323 132.763C125.648 132.237 126.109 131.807 126.658 131.517C127.207 131.226 127.825 131.086 128.447 131.112C129.158 131.099 129.857 131.295 130.457 131.674C131.056 132.054 131.529 132.599 131.817 133.244C132.126 133.908 132.294 134.729 132.294 135.647V141.973H129.479V136.014C129.479 135.28 129.311 134.703 128.976 134.275C128.641 133.855 128.182 133.628 127.6 133.628C127.176 133.628 126.805 133.715 126.479 133.908C126.17 134.109 125.914 134.362 125.72 134.72C125.524 135.082 125.427 135.489 125.438 135.9V141.947H122.65ZM133.697 141.947V127.057H136.511V132.737C136.893 132.227 137.389 131.813 137.96 131.526C138.531 131.239 139.162 131.088 139.803 131.085C140.467 131.076 141.126 131.214 141.729 131.491C142.333 131.768 142.865 132.176 143.288 132.684C144.232 133.77 144.733 135.166 144.691 136.599C144.706 138.064 144.186 139.486 143.226 140.601C142.782 141.116 142.23 141.528 141.608 141.809C140.986 142.09 140.31 142.232 139.626 142.226C138.983 142.244 138.346 142.099 137.775 141.805C137.204 141.512 136.717 141.079 136.361 140.548L136.282 141.92L133.697 141.947ZM139.15 139.736C139.661 139.736 140.111 139.596 140.526 139.343C140.923 139.063 141.232 138.696 141.488 138.25C141.708 137.805 141.823 137.272 141.823 136.678C141.858 136.162 141.756 135.645 141.529 135.18C141.301 134.714 140.956 134.315 140.526 134.021C140.113 133.766 139.636 133.631 139.15 133.631C138.663 133.631 138.186 133.766 137.773 134.021C137.385 134.301 137.067 134.668 136.82 135.114C136.574 135.601 136.458 136.142 136.485 136.686C136.45 137.202 136.552 137.718 136.779 138.184C137.007 138.65 137.352 139.049 137.782 139.343C138.197 139.596 138.62 139.736 139.15 139.736Z" fill="#FF385C"/>
</g>
<path d="M309.3 135.547C309.3 139.755 305.994 142.855 301.937 142.855C297.881 142.855 294.575 139.755 294.575 135.547C294.575 131.309 297.881 128.238 301.937 128.238C305.994 128.238 309.3 131.309 309.3 135.547ZM306.077 135.547C306.077 132.917 304.161 131.118 301.937 131.118C299.714 131.118 297.798 132.917 297.798 135.547C297.798 138.15 299.714 139.975 301.937 139.975C304.161 139.975 306.077 138.147 306.077 135.547Z" fill="#EA4335"/>
<path d="M325.182 135.547C325.182 139.755 321.876 142.855 317.82 142.855C313.763 142.855 310.458 139.755 310.458 135.547C310.458 131.312 313.763 128.238 317.82 128.238C321.876 128.238 325.182 131.309 325.182 135.547ZM321.959 135.547C321.959 132.917 320.043 131.118 317.82 131.118C315.596 131.118 313.68 132.917 313.68 135.547C313.68 138.15 315.596 139.975 317.82 139.975C320.043 139.975 321.959 138.147 321.959 135.547Z" fill="#FBBC05"/>
<path d="M340.403 128.68V141.801C340.403 147.199 337.206 149.403 333.427 149.403C329.871 149.403 327.73 147.034 326.922 145.096L329.728 143.933C330.228 145.123 331.452 146.526 333.424 146.526C335.843 146.526 337.342 145.04 337.342 142.243V141.191H337.229C336.508 142.078 335.118 142.852 333.365 142.852C329.695 142.852 326.333 139.669 326.333 135.573C326.333 131.447 329.695 128.238 333.365 128.238C335.115 128.238 336.505 129.012 337.229 129.872H337.342V128.683H340.403V128.68ZM337.57 135.573C337.57 133 335.846 131.118 333.653 131.118C331.429 131.118 329.566 133 329.566 135.573C329.566 138.12 331.429 139.975 333.653 139.975C335.846 139.975 337.57 138.12 337.57 135.573Z" fill="#4285F4"/>
<path d="M345.449 120.989V142.407H342.305V120.989H345.449Z" fill="#34A853"/>
<path d="M357.698 137.952L360.199 139.613C359.392 140.803 357.446 142.852 354.085 142.852C349.915 142.852 346.802 139.643 346.802 135.543C346.802 131.197 349.942 128.235 353.724 128.235C357.532 128.235 359.395 131.253 360.004 132.884L360.338 133.715L350.528 137.761C351.279 139.227 352.447 139.975 354.085 139.975C355.726 139.975 356.864 139.171 357.698 137.952ZM349.998 135.323L356.556 132.611C356.196 131.698 355.11 131.062 353.833 131.062C352.195 131.062 349.915 132.502 349.998 135.323Z" fill="#EA4335"/>
<path d="M282.677 133.645V130.545H293.169C293.272 131.085 293.325 131.724 293.325 132.416C293.325 134.743 292.686 137.619 290.628 139.669C288.626 141.745 286.069 142.852 282.68 142.852C276.4 142.852 271.119 137.758 271.119 131.504C271.119 125.249 276.4 120.155 282.68 120.155C286.155 120.155 288.63 121.512 290.489 123.282L288.292 125.47C286.959 124.224 285.152 123.256 282.677 123.256C278.091 123.256 274.504 126.936 274.504 131.504C274.504 136.071 278.091 139.751 282.677 139.751C285.652 139.751 287.346 138.562 288.431 137.481C289.311 136.604 289.89 135.352 290.119 133.642L282.677 133.645Z" fill="#4285F4"/>
<g clip-path="url(#clip1_368_93344)">
<path fill-rule="evenodd" clip-rule="evenodd" d="M542.834 143.044C537.604 147.018 530.023 149.138 523.497 149.138C514.345 149.138 506.106 145.649 499.873 139.845C499.384 139.389 499.822 138.767 500.41 139.122C507.137 143.157 515.454 145.584 524.045 145.584C529.839 145.584 536.213 144.348 542.074 141.784C542.96 141.396 543.7 142.381 542.834 143.044Z" fill="#FF9900"/>
<path fill-rule="evenodd" clip-rule="evenodd" d="M545.009 140.479C544.343 139.599 540.59 140.063 538.905 140.269C538.392 140.334 538.314 139.873 538.776 139.542C541.765 137.373 546.67 137.999 547.242 138.726C547.814 139.457 547.093 144.526 544.284 146.945C543.853 147.317 543.442 147.119 543.634 146.626C544.264 145.003 545.679 141.364 545.009 140.479Z" fill="#FF9900"/>
<path fill-rule="evenodd" clip-rule="evenodd" d="M539.023 124.231V122.122C539.023 121.803 539.258 121.589 539.54 121.589H548.695C548.989 121.589 549.224 121.807 549.224 122.122V123.928C549.22 124.231 548.973 124.627 548.535 125.253L543.79 132.236C545.553 132.191 547.414 132.462 549.013 133.391C549.373 133.601 549.471 133.908 549.498 134.211V136.46C549.498 136.767 549.169 137.127 548.824 136.941C546.008 135.418 542.266 135.253 539.152 136.957C538.834 137.135 538.501 136.78 538.501 136.473V134.336C538.501 133.993 538.505 133.407 538.838 132.886L544.335 124.76H539.551C539.258 124.76 539.023 124.546 539.023 124.231Z" fill="black"/>
<path fill-rule="evenodd" clip-rule="evenodd" d="M505.624 137.385H502.839C502.573 137.365 502.361 137.159 502.341 136.897V122.159C502.341 121.864 502.58 121.63 502.878 121.63H505.476C505.746 121.642 505.961 121.856 505.981 122.122V124.049H506.032C506.71 122.187 507.983 121.319 509.699 121.319C511.442 121.319 512.531 122.187 513.315 124.049C513.989 122.187 515.52 121.319 517.162 121.319C518.329 121.319 519.607 121.815 520.386 122.93C521.268 124.17 521.087 125.971 521.087 127.551L521.083 136.852C521.083 137.147 520.845 137.385 520.547 137.385H517.765C517.487 137.365 517.264 137.135 517.264 136.852V129.041C517.264 128.419 517.319 126.868 517.185 126.278C516.978 125.289 516.355 125.01 515.548 125.01C514.874 125.01 514.169 125.475 513.883 126.218C513.597 126.961 513.624 128.205 513.624 129.041V136.852C513.624 137.147 513.385 137.385 513.088 137.385H510.306C510.024 137.365 509.805 137.135 509.805 136.852L509.801 129.041C509.801 127.397 510.063 124.978 508.085 124.978C506.083 124.978 506.161 127.337 506.161 129.041V136.852C506.161 137.147 505.922 137.385 505.624 137.385" fill="black"/>
<path fill-rule="evenodd" clip-rule="evenodd" d="M557.106 121.319C561.239 121.319 563.476 124.978 563.476 129.631C563.476 134.126 561.004 137.692 557.106 137.692C553.047 137.692 550.838 134.033 550.838 129.473C550.838 124.885 553.075 121.319 557.106 121.319ZM557.13 124.328C555.077 124.328 554.948 127.211 554.948 129.009C554.948 130.81 554.92 134.655 557.106 134.655C559.265 134.655 559.367 131.553 559.367 129.663C559.367 128.419 559.316 126.933 558.951 125.753C558.638 124.728 558.015 124.328 557.13 124.328Z" fill="black"/>
<path fill-rule="evenodd" clip-rule="evenodd" d="M568.836 137.385H566.062C565.784 137.365 565.56 137.135 565.56 136.852L565.557 122.11C565.58 121.84 565.811 121.63 566.093 121.63H568.675C568.918 121.642 569.118 121.811 569.173 122.042V124.295H569.223C570.003 122.28 571.096 121.319 573.02 121.319C574.269 121.319 575.488 121.783 576.271 123.055C577 124.235 577 126.218 577 127.644V136.921C576.969 137.179 576.738 137.385 576.463 137.385H573.67C573.415 137.365 573.204 137.171 573.176 136.921V128.916C573.176 127.304 573.357 124.946 571.433 124.946C570.755 124.946 570.132 125.414 569.823 126.125C569.431 127.026 569.38 127.922 569.38 128.916V136.852C569.376 137.147 569.133 137.385 568.836 137.385" fill="black"/>
<path fill-rule="evenodd" clip-rule="evenodd" d="M531.724 130.346C531.724 131.464 531.751 132.397 531.203 133.391C530.76 134.199 530.055 134.695 529.275 134.695C528.206 134.695 527.579 133.855 527.579 132.615C527.579 130.168 529.706 129.724 531.724 129.724V130.346ZM534.533 137.345C534.349 137.515 534.082 137.527 533.875 137.414C532.95 136.622 532.782 136.254 532.276 135.499C530.748 137.107 529.663 137.587 527.685 137.587C525.338 137.587 523.516 136.097 523.516 133.112C523.516 130.782 524.739 129.194 526.486 128.419C527.998 127.732 530.11 127.611 531.724 127.421V127.05C531.724 126.367 531.775 125.559 531.383 124.97C531.046 124.441 530.396 124.223 529.82 124.223C528.758 124.223 527.814 124.784 527.583 125.947C527.536 126.206 527.352 126.46 527.097 126.472L524.398 126.173C524.171 126.121 523.916 125.931 523.983 125.572C524.602 122.195 527.563 121.177 530.212 121.177C531.567 121.177 533.338 121.549 534.407 122.607C535.763 123.912 535.634 125.652 535.634 127.547V132.022C535.634 133.367 536.174 133.956 536.684 134.683C536.86 134.942 536.899 135.253 536.672 135.447C536.104 135.935 535.093 136.844 534.537 137.353L534.533 137.345" fill="black"/>
<path fill-rule="evenodd" clip-rule="evenodd" d="M495.207 130.346C495.207 131.465 495.235 132.398 494.686 133.391C494.244 134.199 493.542 134.696 492.759 134.696C491.689 134.696 491.067 133.856 491.067 132.616C491.067 130.168 493.194 129.724 495.207 129.724V130.346ZM498.016 137.345C497.832 137.515 497.566 137.527 497.358 137.414C496.434 136.622 496.269 136.255 495.76 135.499C494.232 137.107 493.151 137.587 491.168 137.587C488.826 137.587 487 136.097 487 133.112C487 130.782 488.226 129.195 489.97 128.419C491.482 127.733 493.593 127.611 495.207 127.422V127.05C495.207 126.367 495.258 125.56 494.871 124.97C494.53 124.441 493.879 124.223 493.307 124.223C492.246 124.223 491.298 124.784 491.067 125.947C491.019 126.206 490.835 126.46 490.585 126.472L487.881 126.174C487.654 126.121 487.404 125.931 487.466 125.572C488.089 122.195 491.047 121.178 493.695 121.178C495.051 121.178 496.822 121.549 497.891 122.607C499.247 123.912 499.117 125.653 499.117 127.547V132.022C499.117 133.367 499.658 133.957 500.167 134.684C500.347 134.942 500.387 135.253 500.159 135.447C499.591 135.936 498.581 136.844 498.024 137.353L498.016 137.345" fill="black"/>
</g>
<g clip-path="url(#clip2_368_93344)">
<path d="M734.768 136.615L734.232 138.132H734.187C734.098 137.79 733.934 137.269 733.666 136.645L730.79 129.434H727.974V140.927H729.836V133.835C729.836 133.389 729.836 132.883 729.821 132.259C729.806 131.946 729.776 131.708 729.762 131.53H729.806C729.896 131.976 730 132.303 730.075 132.511L733.531 140.897H734.843L738.27 132.437C738.344 132.244 738.419 131.857 738.493 131.53H738.538C738.493 132.378 738.464 133.136 738.449 133.597V140.882H740.43V129.404H737.719L734.768 136.615ZM742.308 132.645H744.245V140.882H742.308V132.645ZM743.291 129.166C742.964 129.166 742.695 129.285 742.472 129.493C742.248 129.701 742.129 129.969 742.129 130.296C742.129 130.608 742.248 130.876 742.472 131.084C742.695 131.292 742.964 131.396 743.291 131.396C743.619 131.396 743.902 131.277 744.111 131.084C744.334 130.876 744.454 130.608 744.454 130.296C744.454 129.984 744.334 129.716 744.111 129.493C743.917 129.285 743.634 129.166 743.291 129.166ZM751.114 132.571C750.757 132.496 750.384 132.452 750.026 132.452C749.147 132.452 748.343 132.645 747.672 133.032C747.002 133.418 746.465 133.954 746.123 134.623C745.765 135.307 745.586 136.095 745.586 137.002C745.586 137.79 745.765 138.488 746.108 139.128C746.45 139.752 746.927 140.258 747.568 140.6C748.179 140.942 748.894 141.12 749.699 141.12C750.623 141.12 751.412 140.927 752.038 140.57L752.053 140.555V138.771L751.978 138.83C751.695 139.039 751.368 139.217 751.04 139.321C750.697 139.44 750.384 139.5 750.116 139.5C749.341 139.5 748.73 139.276 748.298 138.786C747.851 138.31 747.627 137.656 747.627 136.838C747.627 135.991 747.851 135.321 748.313 134.831C748.775 134.34 749.386 134.087 750.131 134.087C750.757 134.087 751.397 134.296 751.978 134.712L752.053 134.771V132.883L752.038 132.868C751.785 132.764 751.502 132.645 751.114 132.571ZM757.507 132.511C757.03 132.511 756.583 132.66 756.195 132.972C755.868 133.24 755.644 133.626 755.45 134.087H755.435V132.645H753.498V140.882H755.435V136.674C755.435 135.961 755.584 135.366 755.912 134.935C756.24 134.489 756.657 134.266 757.164 134.266C757.343 134.266 757.522 134.31 757.745 134.34C757.954 134.4 758.103 134.459 758.207 134.533L758.281 134.593V132.66L758.237 132.645C758.103 132.556 757.834 132.511 757.507 132.511ZM762.781 132.467C761.425 132.467 760.338 132.868 759.578 133.656C758.803 134.444 758.43 135.53 758.43 136.898C758.43 138.176 758.818 139.217 759.563 139.975C760.308 140.719 761.321 141.105 762.588 141.105C763.914 141.105 764.972 140.704 765.732 139.901C766.507 139.098 766.879 138.028 766.879 136.704C766.879 135.396 766.522 134.355 765.791 133.597C765.091 132.838 764.063 132.467 762.781 132.467ZM764.331 138.801C763.974 139.262 763.407 139.485 762.707 139.485C762.007 139.485 761.44 139.262 761.038 138.771C760.636 138.31 760.442 137.641 760.442 136.793C760.442 135.916 760.651 135.247 761.038 134.771C761.44 134.296 761.992 134.058 762.692 134.058C763.377 134.058 763.914 134.281 764.301 134.742C764.689 135.203 764.897 135.872 764.897 136.749C764.868 137.641 764.704 138.34 764.331 138.801ZM771.2 136.065C770.589 135.812 770.202 135.619 770.023 135.455C769.874 135.307 769.8 135.098 769.8 134.831C769.8 134.608 769.889 134.385 770.113 134.236C770.336 134.087 770.589 134.013 770.962 134.013C771.29 134.013 771.632 134.073 771.96 134.162C772.288 134.251 772.586 134.385 772.825 134.563L772.899 134.623V132.809L772.854 132.794C772.631 132.705 772.333 132.615 771.975 132.541C771.618 132.482 771.29 132.452 771.022 132.452C770.098 132.452 769.338 132.675 768.742 133.166C768.146 133.626 767.863 134.251 767.863 134.979C767.863 135.366 767.922 135.708 768.056 135.991C768.19 136.273 768.384 136.541 768.652 136.764C768.921 136.972 769.308 137.21 769.844 137.433C770.291 137.626 770.634 137.775 770.843 137.894C771.051 138.013 771.185 138.146 771.29 138.251C771.364 138.369 771.409 138.518 771.409 138.711C771.409 139.262 770.992 139.529 770.142 139.529C769.815 139.529 769.472 139.47 769.07 139.336C768.667 139.202 768.295 139.009 767.982 138.786L767.907 138.726V140.615L767.952 140.63C768.235 140.763 768.578 140.853 768.995 140.957C769.412 141.031 769.785 141.09 770.113 141.09C771.111 141.09 771.93 140.867 772.512 140.377C773.108 139.901 773.421 139.291 773.421 138.503C773.421 137.953 773.272 137.463 772.944 137.091C772.512 136.734 771.975 136.362 771.2 136.065ZM778.531 132.467C777.175 132.467 776.088 132.868 775.328 133.656C774.568 134.444 774.18 135.53 774.18 136.898C774.18 138.176 774.568 139.217 775.313 139.975C776.058 140.719 777.071 141.105 778.338 141.105C779.664 141.105 780.722 140.704 781.482 139.901C782.257 139.098 782.629 138.028 782.629 136.704C782.629 135.396 782.272 134.355 781.541 133.597C780.841 132.838 779.813 132.467 778.531 132.467ZM780.066 138.801C779.709 139.262 779.142 139.485 778.442 139.485C777.727 139.485 777.175 139.262 776.773 138.771C776.371 138.31 776.177 137.641 776.177 136.793C776.177 135.916 776.386 135.247 776.773 134.771C777.175 134.296 777.727 134.058 778.427 134.058C779.098 134.058 779.649 134.281 780.036 134.742C780.424 135.203 780.632 135.872 780.632 136.749C780.632 137.641 780.439 138.34 780.066 138.801ZM792.985 134.236V132.645H791.033V130.207L790.974 130.222L789.126 130.772L789.081 130.787V132.645H786.161V131.604C786.161 131.129 786.28 130.757 786.488 130.519C786.697 130.281 787.01 130.162 787.397 130.162C787.666 130.162 787.949 130.222 788.262 130.355L788.336 130.4V128.72L788.291 128.705C788.023 128.616 787.666 128.556 787.204 128.556C786.623 128.556 786.116 128.69 785.654 128.913C785.192 129.166 784.849 129.508 784.596 129.969C784.343 130.415 784.209 130.92 784.209 131.5V132.645H782.853V134.221H784.209V140.882H786.161V134.236H789.081V138.474C789.081 140.213 789.901 141.09 791.54 141.09C791.808 141.09 792.091 141.046 792.359 141.001C792.642 140.942 792.851 140.867 792.97 140.808L792.985 140.793V139.202L792.911 139.262C792.791 139.336 792.687 139.395 792.508 139.44C792.359 139.485 792.225 139.5 792.121 139.5C791.733 139.5 791.465 139.41 791.272 139.187C791.093 138.979 791.003 138.637 791.003 138.132V134.236H792.985Z" fill="#737373"/>
<path d="M703 125.568H712.134V134.682H703V125.568Z" fill="#F25022"/>
<path d="M713.088 125.568H722.222V134.682H713.088V125.568Z" fill="#7FBA00"/>
<path d="M703 135.634H712.134V144.748H703V135.634Z" fill="#00A4EF"/>
<path d="M713.088 135.634H722.222V144.748H713.088V135.634Z" fill="#FFB900"/>
</g>
<g clip-path="url(#clip3_368_93344)">
<path d="M985.927 147.85L993.433 139.537L985.927 131.223H993.847L997.564 135.261L1001.14 131.223H1008.79L1001.32 139.503L1008.89 147.85H1000.94L997.254 143.778L993.605 147.85H985.927Z" fill="#FF6600"/>
<path d="M985.927 127.496H977.427V131.223H985.927V136.84H977.427V141.996H985.927V147.85H971.179V121.658H985.927V127.496Z" fill="#FF6600"/>
<path d="M964.957 121.658V132.377H964.889C963.511 130.816 961.79 130.274 959.793 130.274C955.703 130.274 952.622 133.015 951.54 136.639C950.307 132.646 947.126 130.199 942.409 130.199C938.579 130.199 935.554 131.894 933.976 134.656V131.223H926.058V127.496H934.698V121.658H919V147.85H926.058V136.84H933.093C932.883 137.649 932.771 138.515 932.771 139.429C932.771 144.892 937.005 148.726 942.409 148.726C946.954 148.726 949.948 146.623 951.532 142.789H945.484C944.666 143.941 944.045 144.283 942.409 144.283C940.513 144.283 938.877 142.652 938.877 140.718H951.193C951.728 145.058 955.157 148.8 959.863 148.8C961.893 148.8 963.752 147.816 964.889 146.154H964.957V147.849H971.179V121.658H964.957ZM939.074 136.918C939.466 135.255 940.775 134.167 942.409 134.167C944.208 134.167 945.451 135.221 945.777 136.918C945.915 136.918 939.074 136.918 939.074 136.918ZM961.181 143.862C958.888 143.862 957.463 141.756 957.463 139.556C957.463 137.205 958.703 134.945 961.181 134.945C963.752 134.945 964.776 137.205 964.776 139.556C964.776 141.786 963.69 143.862 961.181 143.862Z" fill="#652C8F"/>
</g>
<g clip-path="url(#clip4_368_93344)">
<path d="M1144.75 126.557V133.811H1138.14V126.557H1135V143.872H1138.14V136.854H1144.75V143.872H1147.88V126.557H1144.75Z" fill="#33475B"/>
<path d="M1157.93 138.275C1157.93 138.969 1157.65 139.634 1157.17 140.125C1156.68 140.615 1156.02 140.891 1155.33 140.891C1154.64 140.891 1153.98 140.615 1153.49 140.125C1153.01 139.634 1152.73 138.969 1152.73 138.275V130.859H1149.76V138.275C1149.76 139.763 1150.34 141.19 1151.39 142.242C1152.43 143.294 1153.85 143.885 1155.32 143.885C1156.8 143.885 1158.22 143.294 1159.26 142.242C1160.3 141.19 1160.89 139.763 1160.89 138.275V130.859H1157.93V138.275Z" fill="#33475B"/>
<path d="M1179.98 131.623C1179.98 130.103 1180.97 129.621 1182.07 129.621C1182.95 129.621 1184.11 130.296 1184.87 131.116L1186.82 128.801C1185.85 127.475 1183.88 126.557 1182.26 126.557C1179.03 126.557 1176.7 128.463 1176.7 131.623C1176.7 137.484 1183.8 135.625 1183.8 138.905C1183.8 139.917 1182.83 140.811 1181.71 140.811C1179.95 140.811 1179.38 139.944 1178.58 139.026L1176.41 141.293C1177.8 143.005 1179.5 143.875 1181.55 143.875C1184.61 143.875 1187.08 141.946 1187.08 138.93C1187.08 132.422 1179.97 134.444 1179.97 131.623" fill="#33475B"/>
<path d="M1223.95 141.106C1222.19 141.106 1221.69 140.339 1221.69 139.164V133.965H1224.43V131.331H1221.69V127.856L1218.68 129.221V139.81C1218.68 142.519 1220.53 143.884 1223.07 143.884C1223.47 143.891 1223.87 143.859 1224.26 143.788L1225 141.056C1224.67 141.079 1224.29 141.103 1223.95 141.103" fill="#33475B"/>
<path d="M1169.25 130.945C1167.78 130.945 1166.75 131.376 1165.76 132.36V126.661H1162.78V137.224C1162.78 141.178 1165.61 143.887 1168.8 143.887C1172.33 143.887 1175.44 141.13 1175.44 137.418C1175.44 133.752 1172.58 130.947 1169.25 130.947V130.945ZM1169.24 140.864C1168.57 140.864 1167.91 140.664 1167.36 140.289C1166.8 139.915 1166.37 139.382 1166.11 138.76C1165.86 138.137 1165.79 137.451 1165.92 136.79C1166.05 136.129 1166.37 135.521 1166.84 135.045C1167.32 134.568 1167.92 134.243 1168.58 134.112C1169.23 133.98 1169.91 134.048 1170.53 134.306C1171.15 134.564 1171.68 135 1172.05 135.561C1172.42 136.122 1172.62 136.781 1172.62 137.455C1172.62 138.359 1172.26 139.226 1171.63 139.865C1170.99 140.505 1170.13 140.864 1169.24 140.864Z" fill="#33475B"/>
<path d="M1201.62 137.26C1201.62 133.541 1198.52 130.791 1194.97 130.791C1191.79 130.791 1188.95 133.499 1188.95 137.453V148.023H1191.93V142.316C1192.93 143.298 1193.96 143.731 1195.43 143.731C1198.76 143.731 1201.62 140.927 1201.62 137.26H1201.62ZM1198.8 137.223C1198.8 137.897 1198.6 138.556 1198.23 139.116C1197.86 139.677 1197.33 140.114 1196.71 140.372C1196.09 140.63 1195.41 140.698 1194.76 140.566C1194.1 140.434 1193.5 140.11 1193.02 139.633C1192.55 139.156 1192.23 138.549 1192.1 137.888C1191.97 137.226 1192.04 136.541 1192.29 135.918C1192.55 135.295 1192.98 134.763 1193.54 134.388C1194.09 134.014 1194.75 133.814 1195.42 133.814C1196.31 133.814 1197.17 134.173 1197.81 134.812C1198.44 135.451 1198.8 136.318 1198.8 137.223Z" fill="#33475B"/>
<path d="M1211.25 130.645V127.626C1211.65 127.44 1211.98 127.144 1212.22 126.773C1212.45 126.402 1212.58 125.972 1212.58 125.531V125.462C1212.58 124.845 1212.34 124.254 1211.9 123.818C1211.47 123.382 1210.89 123.137 1210.27 123.137H1210.21C1209.59 123.137 1209.01 123.382 1208.57 123.818C1208.14 124.254 1207.9 124.845 1207.9 125.462V125.531C1207.9 125.972 1208.03 126.402 1208.26 126.773C1208.5 127.144 1208.83 127.44 1209.23 127.626V130.645C1208.09 130.82 1207.02 131.295 1206.12 132.022L1197.91 125.575C1197.97 125.362 1198 125.143 1198 124.923C1198 124.405 1197.85 123.898 1197.57 123.467C1197.28 123.036 1196.88 122.699 1196.4 122.5C1195.93 122.301 1195.41 122.248 1194.9 122.349C1194.4 122.449 1193.93 122.698 1193.57 123.063C1193.21 123.429 1192.96 123.895 1192.86 124.403C1192.76 124.911 1192.81 125.438 1193 125.917C1193.2 126.396 1193.53 126.805 1193.96 127.093C1194.39 127.382 1194.89 127.536 1195.4 127.537C1195.85 127.535 1196.29 127.414 1196.68 127.186L1204.77 133.529C1204.04 134.635 1203.66 135.936 1203.68 137.263C1203.7 138.59 1204.11 139.88 1204.87 140.966L1202.41 143.445C1202.21 143.381 1202 143.347 1201.79 143.345C1201.37 143.345 1200.96 143.471 1200.61 143.708C1200.26 143.944 1199.99 144.28 1199.82 144.673C1199.66 145.066 1199.62 145.498 1199.7 145.915C1199.79 146.332 1199.99 146.716 1200.29 147.016C1200.59 147.317 1200.97 147.522 1201.38 147.605C1201.79 147.688 1202.22 147.645 1202.61 147.483C1203 147.32 1203.33 147.045 1203.57 146.691C1203.8 146.338 1203.93 145.922 1203.93 145.497C1203.93 145.287 1203.89 145.078 1203.83 144.877L1206.26 142.424C1207.06 143.04 1207.98 143.464 1208.96 143.665C1209.94 143.865 1210.96 143.837 1211.92 143.581C1212.89 143.326 1213.79 142.851 1214.55 142.191C1215.31 141.532 1215.91 140.707 1216.3 139.779C1216.69 138.851 1216.87 137.844 1216.82 136.836C1216.76 135.828 1216.48 134.846 1216 133.964C1215.51 133.083 1214.83 132.325 1214.01 131.75C1213.18 131.174 1212.24 130.796 1211.25 130.645ZM1210.24 140.571C1209.58 140.57 1208.93 140.371 1208.37 139.998C1207.82 139.625 1207.39 139.095 1207.13 138.474C1206.88 137.854 1206.81 137.172 1206.94 136.514C1207.07 135.856 1207.39 135.252 1207.86 134.778C1208.34 134.303 1208.94 133.98 1209.59 133.849C1210.24 133.719 1210.92 133.786 1211.53 134.042C1212.15 134.299 1212.67 134.734 1213.04 135.292C1213.41 135.849 1213.61 136.505 1213.61 137.176C1213.61 138.076 1213.26 138.939 1212.63 139.576C1211.99 140.212 1211.14 140.57 1210.24 140.57" fill="#FF7A59"/>
</g>
<defs>
<clipPath id="clip0_368_93344">
<rect width="90" height="27.9612" fill="white" transform="translate(55 121.177)"/>
</clipPath>
<clipPath id="clip1_368_93344">
<rect width="90" height="27.9612" fill="white" transform="translate(487 121.177)"/>
</clipPath>
<clipPath id="clip2_368_93344">
<rect width="90" height="19.1803" fill="white" transform="translate(703 125.568)"/>
</clipPath>
<clipPath id="clip3_368_93344">
<rect width="90" height="27" fill="white" transform="translate(919 121.658)"/>
</clipPath>
<clipPath id="clip4_368_93344">
<rect width="90" height="25.7143" fill="white" transform="translate(1135 122.301)"/>
</clipPath>
</defs>
</svg>
